<?xml version="1.0" encoding="UTF-8"?>
<svg id="Layer_2" data-name="Layer 2" xmlns="http://www.w3.org/2000/svg" width="1583.77" height="360.53" viewBox="0 0 1583.77 360.53">
  <g id="Layer_1-2" data-name="Layer 1">
    <g>
      <g>
        <g>
          <polygon points="153.94 58.44 110.46 273.02 148.26 273.02 177.36 132.3 198.75 211.31 234.93 211.31 277.8 0 241.4 0 214.76 133.25 190.32 58.44 153.94 58.44" fill="#fff"/>
          <path d="M294.89,153.41l3.67-17.84h16.29c10.12.05,17.58,5.06,16.79,18.16-1.06,17.53-14.44,23.99-20.45,23.92h-21.27l4.98-24.24-35.39-11.04-14.13,68.94h69.34c21.62-.07,51.99-19.72,54.2-54.23,1.81-28.06-6.47-35.76-18.69-44.72,8.72-8.32,11.04-14.16,10.75-27.27-.35-15.52-11.09-26.37-23.02-26.65h-61.25l-6.01,29.32,36.07,7.23,2.38-11.67h8.6c5.94.68,8.64,4.94,8.18,10.07-.9,9.79-7.83,15.11-13.9,15.18h-8.03l2.78-13.59-36.07-7.23-11.19,54.61,35.39,11.04Z" fill="#fff"/>
        </g>
        <path d="M60.63,178.77c-9.02,0-21.33-2.25-19.71-11.65l23.18-109.06H25.75S4.72,156.96.57,176.52c-4.16,19.56,14.7,38.74,51.94,38.74s61.46-18.43,65.92-39.5c4.48-21.05,25.03-117.7,25.03-117.7h-38.73l-23.11,108.69c-2.13,8.27-11.96,12.03-20.98,12.03" fill="#fff" fill-rule="evenodd"/>
        <path d="M489.08,56.02c-32.87-4.22-98.9,10.36-113.41,78.66-14.52,68.3,47.04,85.57,80.32,80.58l9.63-45.28c-32.25,7.29-55.37-3.07-48.43-35.69,6.85-32.23,36.32-44.51,63.03-38.37l8.87-39.9" fill="#fff" fill-rule="evenodd"/>
        <path d="M566.37,72.05l-6.93,32.58c-2.18,10.28-10.46,18.95-24.24,18.95s-17.45-8.67-15.46-18.04l7.12-33.49h6.78l-6.72,31.61c-2.32,10.91,3.68,13.91,9.77,13.91s13.82-2.87,16.14-13.77l6.75-31.74h6.78Z" fill="#fff"/>
        <path d="M610.42,72.05h6.57l-10.67,50.21h-7.62l-16.9-40.56h-.14l-8.62,40.56h-6.57l10.67-50.21h8.04l16.48,40.55h.14l8.62-40.55Z" fill="#fff"/>
        <path d="M624.79,122.26h-6.78l10.67-50.21h6.78l-10.67,50.21Z" fill="#fff"/>
        <path d="M679.37,72.05h7.62l-28.99,50.21h-7.2l-7.65-50.21h7.55l5.24,42.79h.14l23.29-42.79Z" fill="#fff"/>
        <path d="M720.79,122.26h-37.06l10.67-50.21h36.57l-1.28,6.01h-29.79l-3.27,15.38h27.48l-1.28,6.01h-27.48l-3.57,16.78h30.28l-1.28,6.01Z" fill="#fff"/>
        <path d="M746.73,77.86h16.92c3.36,0,8.89.63,7.24,8.39-1.58,7.41-7.09,8.67-12.05,8.67h-15.73l3.63-17.06ZM741.87,100.72h16.43c8.11,0,7.93,4.83,7.05,8.95-.4,1.89-1.81,9.51-1.49,12.59h8.32l.24-1.12c-1.84-1.19-1.97-2.24-1.45-5.04l1.51-9.09c1.21-7-1.39-8.25-4.01-9.44,3.62-1.88,7.97-4.61,9.55-12.02,2.26-10.63-5.38-13.5-13.63-13.5h-23.21l-10.67,50.21h6.78l4.58-21.54Z" fill="#fff"/>
        <path d="M817.98,86.74c1.3-7.76-4.61-10.21-10.28-10.21-4.26,0-11.72,1.19-13.34,8.81-.91,4.26,1.8,5.66,4.59,6.36l13.64,3.29c6.18,1.54,10.24,5.45,8.54,13.43-2.53,11.89-14.27,15.17-22.87,15.17-9.3,0-12.34-2.8-14.15-4.82-3.45-3.85-3.4-8.04-2.4-12.73h6.36c-1.93,9.09,4.91,11.75,11.35,11.75,4.89,0,13.41-1.26,14.94-8.46,1.11-5.24-.97-6.92-8.81-8.88l-9.77-2.38c-3.12-.77-10.05-3.08-8.19-11.82,1.66-7.83,8.4-15.52,20.57-15.52,17.55,0,17.07,10.49,16.17,16.01h-6.36Z" fill="#fff"/>
        <path d="M834.62,122.26h-6.78l10.67-50.21h6.78l-10.67,50.21Z" fill="#fff"/>
        <path d="M852.56,72.05h40.76l-1.28,6.01h-16.99l-9.4,44.19h-6.78l9.4-44.19h-16.99l1.28-6.01Z" fill="#fff"/>
        <path d="M910.34,122.26h-6.79l4.3-20.21-12.57-30h7.9l9.28,24.12,19.53-24.12h7.97l-25.33,30-4.29,20.21Z" fill="#fff"/>
        <path d="M999.72,97.16c-2.51,11.82-10.91,20.42-21.82,20.42s-15.66-8.6-13.14-20.42c2.51-11.81,10.91-20.41,21.82-20.41s15.65,8.6,13.14,20.41ZM1006.71,97.16c2.3-10.84-.11-26.43-18.85-26.43s-27.79,15.59-30.09,26.43c-2.3,10.84.11,26.43,18.85,26.43s27.79-15.59,30.09-26.43Z" fill="#fff"/>
        <path d="M1016.9,122.26h-6.79l10.67-50.21h34.75l-1.28,6.01h-27.97l-3.27,15.38h24.61l-1.28,6.01h-24.61l-4.84,22.8Z" fill="#fff"/>
        <path d="M559.94,156.54h6.57l-10.67,50.2h-7.62l-16.9-40.55h-.14l-8.62,40.55h-6.57l10.67-50.2h8.04l16.48,40.55h.14l8.62-40.55Z" fill="#fff"/>
        <path d="M611.17,181.65c-2.51,11.82-10.91,20.42-21.82,20.42s-15.65-8.6-13.14-20.42c2.51-11.81,10.91-20.42,21.82-20.42s15.65,8.6,13.14,20.42ZM618.16,181.65c2.3-10.84-.12-26.43-18.85-26.43s-27.79,15.59-30.09,26.43c-2.3,10.84.12,26.43,18.85,26.43s27.79-15.59,30.09-26.43Z" fill="#fff"/>
        <path d="M637.93,162.35h16.92c3.36,0,8.89.63,7.24,8.39-1.58,7.41-7.09,8.67-12.05,8.67h-15.73l3.63-17.06ZM633.07,185.21h16.43c8.11,0,7.93,4.82,7.05,8.95-.4,1.89-1.81,9.51-1.49,12.59h8.32l.24-1.12c-1.84-1.19-1.97-2.24-1.45-5.04l1.51-9.09c1.21-6.99-1.39-8.25-4.01-9.44,3.62-1.89,7.97-4.61,9.55-12.02,2.26-10.63-5.38-13.5-13.63-13.5h-23.21l-10.67,50.2h6.78l4.58-21.53Z" fill="#fff"/>
        <path d="M675.61,156.54h40.76l-1.28,6.01h-16.99l-9.39,44.19h-6.78l9.39-44.19h-16.99l1.28-6.01Z" fill="#fff"/>
        <path d="M755.74,156.54h6.78l-10.67,50.2h-6.78l4.98-23.42h-26.22l-4.98,23.42h-6.78l10.67-50.2h6.78l-4.42,20.77h26.22l4.41-20.77Z" fill="#fff"/>
        <path d="M800.23,206.75h-37.06l10.67-50.2h36.57l-1.28,6.01h-29.78l-3.27,15.38h27.48l-1.28,6.01h-27.48l-3.57,16.78h30.28l-1.28,6.01Z" fill="#fff"/>
        <path d="M826.17,162.35h16.92c3.36,0,8.89.63,7.24,8.39-1.58,7.41-7.09,8.67-12.05,8.67h-15.73l3.63-17.06ZM821.31,185.21h16.43c8.11,0,7.92,4.82,7.04,8.95-.4,1.89-1.81,9.51-1.49,12.59h8.32l.24-1.12c-1.85-1.19-1.97-2.24-1.45-5.04l1.51-9.09c1.21-6.99-1.39-8.25-4-9.44,3.62-1.89,7.97-4.61,9.55-12.02,2.26-10.63-5.38-13.5-13.64-13.5h-23.21l-10.67,50.2h6.78l4.58-21.53Z" fill="#fff"/>
        <path d="M903.55,156.54h6.57l-10.67,50.2h-7.62l-16.9-40.55h-.14l-8.62,40.55h-6.57l10.67-50.2h8.04l16.48,40.55h.14l8.62-40.55Z" fill="#fff"/>
        <path d="M945.59,162.35h12.31c7.55,0,9.85,2.66,8.86,7.34-1.31,6.15-5.71,8.11-12.21,8.11h-12.23l3.28-15.45ZM929.37,206.75h21.61c11.12,0,18.5-6.78,20.21-14.82,1.83-8.6-3.49-10.91-6.49-12.23,6.07-2.59,8.24-7.2,8.94-10.49,1.46-6.85-2.13-12.66-11.5-12.66h-22.1l-10.67,50.2ZM941.13,183.32h13.36c5.52,0,11.45,1.4,9.95,8.46-1.19,5.59-5.51,9.16-12.58,9.16h-14.47l3.74-17.62Z" fill="#fff"/>
        <path d="M993.21,162.35h16.92c3.36,0,8.88.63,7.24,8.39-1.58,7.41-7.09,8.67-12.05,8.67h-15.73l3.63-17.06ZM988.35,185.21h16.43c8.11,0,7.92,4.82,7.05,8.95-.4,1.89-1.81,9.51-1.49,12.59h8.32l.24-1.12c-1.85-1.19-1.97-2.24-1.45-5.04l1.51-9.09c1.21-6.99-1.39-8.25-4-9.44,3.62-1.89,7.97-4.61,9.55-12.02,2.26-10.63-5.38-13.5-13.63-13.5h-23.21l-10.67,50.2h6.78l4.58-21.53Z" fill="#fff"/>
        <path d="M1034.47,206.75h-6.78l10.67-50.2h6.78l-10.67,50.2Z" fill="#fff"/>
        <path d="M1052.41,156.54h40.77l-1.28,6.01h-16.99l-9.4,44.19h-6.78l9.4-44.19h-16.99l1.28-6.01Z" fill="#fff"/>
        <path d="M1096.62,206.75h-6.78l10.67-50.2h6.78l-10.67,50.2Z" fill="#fff"/>
        <path d="M1146.06,171.23c1.3-7.76-4.61-10.21-10.27-10.21-4.27,0-11.72,1.19-13.34,8.81-.91,4.26,1.8,5.66,4.59,6.36l13.64,3.29c6.17,1.54,10.24,5.45,8.54,13.43-2.53,11.89-14.27,15.17-22.87,15.17-9.3,0-12.34-2.8-14.15-4.83-3.45-3.84-3.39-8.04-2.4-12.72h6.36c-1.93,9.09,4.91,11.75,11.35,11.75,4.89,0,13.41-1.26,14.94-8.46,1.12-5.24-.97-6.92-8.81-8.88l-9.77-2.38c-3.12-.77-10.04-3.08-8.19-11.82,1.66-7.83,8.4-15.52,20.57-15.52,17.55,0,17.07,10.49,16.17,16.01h-6.36Z" fill="#fff"/>
        <path d="M1198.61,156.54h6.78l-10.67,50.2h-6.78l4.98-23.42h-26.22l-4.98,23.42h-6.78l10.67-50.2h6.78l-4.41,20.77h26.22l4.41-20.77Z" fill="#fff"/>
        <path d="M1267.49,171.65c-.01-8.81-7.01-10.42-11.84-10.42-9.09,0-17.86,6.71-20.67,19.93-2.51,11.81-.25,20.9,12.19,20.9,4.41,0,12.47-2.1,17.26-13.77h6.57c-6.82,18.95-22.38,19.79-26.16,19.79-11.4,0-21.01-7.41-16.91-26.71,3.29-15.45,14.37-26.15,28.98-26.15,12.94,0,17.94,8.04,17.13,16.43h-6.57Z" fill="#fff"/>
        <path d="M1319.97,181.65c-2.51,11.82-10.91,20.42-21.82,20.42s-15.65-8.6-13.14-20.42c2.51-11.81,10.91-20.42,21.82-20.42s15.65,8.6,13.14,20.42ZM1326.97,181.65c2.3-10.84-.11-26.43-18.85-26.43s-27.79,15.59-30.09,26.43c-2.3,10.84.11,26.43,18.85,26.43s27.79-15.59,30.09-26.43Z" fill="#fff"/>
        <path d="M1337.73,200.74h25.45l-1.28,6.01h-32.24l10.67-50.2h6.78l-9.4,44.19Z" fill="#fff"/>
        <path d="M1418.93,156.54l-6.92,32.58c-2.19,10.28-10.46,18.95-24.24,18.95s-17.45-8.67-15.46-18.04l7.12-33.49h6.78l-6.72,31.61c-2.32,10.91,3.68,13.91,9.77,13.91s13.82-2.87,16.14-13.77l6.75-31.74h6.78Z" fill="#fff"/>
        <path d="M1460.36,206.75l6.3-29.65c.31-1.47,1.8-7.83,2.8-12.51h-.14l-23.09,42.16h-6.71l-5.18-42.09h-.14c-.98,4.61-2.19,10.98-2.51,12.44l-6.3,29.65h-6.57l10.67-50.2h9.72l5.31,42.44h.14l23.28-42.44h9.65l-10.67,50.2h-6.57Z" fill="#fff"/>
        <path d="M1493.35,162.35h12.31c7.55,0,9.85,2.66,8.86,7.34-1.31,6.15-5.71,8.11-12.21,8.11h-12.24l3.29-15.45ZM1477.13,206.75h21.61c11.12,0,18.5-6.78,20.21-14.82,1.83-8.6-3.49-10.91-6.49-12.23,6.07-2.59,8.24-7.2,8.94-10.49,1.46-6.85-2.13-12.66-11.5-12.66h-22.1l-10.67,50.2ZM1488.9,183.32h13.36c5.52,0,11.45,1.4,9.95,8.46-1.19,5.59-5.51,9.16-12.58,9.16h-14.47l3.74-17.62Z" fill="#fff"/>
        <path d="M1531.74,206.75h-6.78l10.67-50.2h6.78l-10.67,50.2Z" fill="#fff"/>
        <path d="M1557.73,186.12l12.74-22.1h.14l2.71,22.1h-15.59ZM1574.49,192.13l1.86,14.61h7.41l-7.51-50.2h-7.69l-29.55,50.2h6.99l8.35-14.61h20.14Z" fill="#fff"/>
      </g>
      <g>
        <path d="M558.2,286.33h-24.37v7.98h21v12.29h-21v18.73h-15.95v-52.1h40.32v13.1Z" fill="#fff"/>
        <path d="M587.77,325.33c-.34-1.27-.54-2.44-.59-3.51-3.17,3.17-7.2,4.76-12.07,4.76-4.29,0-7.65-1.05-10.06-3.15-2.42-2.1-3.62-5-3.62-8.71,0-1.9.39-3.56,1.17-4.98s1.57-2.5,2.38-3.26c.81-.76,2.18-1.44,4.13-2.05,1.95-.61,3.34-.99,4.17-1.13.83-.15,2.44-.39,4.83-.73.1-.05.18-.07.26-.07s.17-.01.29-.04c.12-.02.23-.04.33-.04.24-.05.83-.11,1.76-.18s1.65-.16,2.16-.26,1.12-.27,1.83-.51c.71-.24,1.23-.61,1.57-1.1.34-.49.51-1.07.51-1.76,0-2.2-1.59-3.29-4.76-3.29-1.76,0-3.02.27-3.81.8-.78.54-1.29,1.54-1.54,3h-13.54c.34-8.44,6.64-12.66,18.88-12.66,9.71,0,15.66,2.34,17.86,7.03.68,1.42,1.02,3.71,1.02,6.88,0,1.51-.02,3.75-.07,6.7-.05,2.95-.07,5.45-.07,7.5,0,5.03.54,8.61,1.61,10.76h-14.64ZM580.16,310.33c-2.63.58-3.95,1.9-3.95,3.95,0,1.17.37,2.1,1.1,2.78s1.73,1.02,3,1.02c2.63,0,4.54-.98,5.71-2.93.59-.98.88-2.56.88-4.76v-2.27c-1.07.73-3.32,1.46-6.73,2.2Z" fill="#fff"/>
        <path d="M641.01,322.04c-3.49,2.83-7.99,4.24-13.5,4.24-6.1,0-11.06-1.8-14.89-5.42-3.83-3.61-5.74-8.32-5.74-14.12s1.9-10.84,5.71-14.53c3.81-3.68,8.81-5.53,15-5.53,5.46,0,9.96,1.39,13.5,4.17,3.54,2.78,5.5,6.44,5.89,10.98h-13.83c-.2-1.51-.79-2.71-1.79-3.59s-2.21-1.32-3.62-1.32c-4.24,0-6.37,3.29-6.37,9.88,0,5.95,2.1,8.93,6.29,8.93,3.27,0,5.2-1.85,5.78-5.56h13.83c-.68,5.07-2.77,9.03-6.26,11.86Z" fill="#fff"/>
        <path d="M692.64,325.33h-14.05v-4.83c-2.49,3.95-6.34,5.93-11.56,5.93-9.17,0-13.76-5.17-13.76-15.51v-23.34h14.64v21.74c0,3.42,1.63,5.12,4.9,5.12,2.2,0,3.63-.68,4.32-2.05s1.02-3.24,1.02-5.63v-19.17h14.49v37.76Z" fill="#fff"/>
        <path d="M715.33,325.33h-14.49v-52.1h14.49v52.1Z" fill="#fff"/>
        <path d="M748.63,296.57h-7.83v13.46c0,2.05.28,3.43.84,4.13.56.71,1.89,1.06,3.99,1.06,1.37,0,2.37-.05,3-.15v10.46c-2.93.2-5.46.29-7.61.29-5.32,0-9.09-.93-11.31-2.78-2.22-1.85-3.33-5.05-3.33-9.59v-16.9h-6.22v-9h6.22v-11.64h14.42v11.64h7.83v9Z" fill="#fff"/>
        <path d="M777.1,326.21c-1.51,4.25-3.35,7.2-5.52,8.86-2.17,1.66-5.48,2.49-9.92,2.49h-9.44v-11.56c1.03.05,2.15.07,3.37.07.78,0,1.41-.02,1.9-.07s1.05-.16,1.68-.33c.63-.17,1.12-.49,1.46-.95.34-.46.51-1.06.51-1.79,0-.49-.15-1.1-.44-1.83l-12.29-33.52h15.37l4.24,14.93c.68,2.44,1.29,5.37,1.83,8.78.88-4.49,1.56-7.56,2.05-9.22l4.17-14.49h14.86l-13.83,38.64Z" fill="#fff"/>
        <path d="M852.63,291.96c3.81,3.66,5.71,8.44,5.71,14.34s-1.93,10.79-5.78,14.53c-3.85,3.73-8.83,5.6-14.93,5.6s-11.15-1.85-15-5.56-5.78-8.51-5.78-14.42,1.94-10.71,5.82-14.42c3.88-3.71,8.92-5.56,15.11-5.56s11.05,1.83,14.86,5.49ZM831.34,306.45c0,6.39,2.1,9.59,6.29,9.59s6.22-3.24,6.22-9.73-2.12-9.37-6.37-9.37-6.15,3.17-6.15,9.51Z" fill="#fff"/>
        <path d="M889.23,283.25c-1.07-.05-2.15-.07-3.22-.07-1.95,0-3.2.17-3.73.51-.54.34-.81,1.07-.81,2.2v1.68h7.46v8.93h-7.46v28.83h-14.42v-28.83h-5.93v-8.93h5.93v-1.54c0-2.63.38-4.82,1.13-6.55.76-1.73,1.9-3.04,3.44-3.92,1.54-.88,3.2-1.49,4.98-1.83s3.92-.51,6.4-.51c1.42,0,3.49.05,6.22.15v9.88Z" fill="#fff"/>
        <path d="M961.09,285.89h-27.44v6.51h24.88v12.08h-24.88v7.61h28.17v13.25h-43.91v-52.1h43.18v12.66Z" fill="#fff"/>
        <path d="M983.05,292.25c3.07-3.8,7.07-5.71,12-5.71s8.24,1.37,10.39,4.1c2.15,2.73,3.22,6.34,3.22,10.83v23.86h-14.56v-21.15c0-4-1.63-6-4.9-6-3.71,0-5.56,2.12-5.56,6.37v20.78h-14.49v-37.76h13.9v4.68Z" fill="#fff"/>
        <path d="M1041.45,325.33h-16.98l-12.59-37.76h15.29l3,11.12c1.37,5.12,2.32,9.76,2.85,13.9.34-3.27,1.27-7.61,2.78-13.03l3.37-12h14.64l-12.37,37.76Z" fill="#fff"/>
        <path d="M1071.97,283.33h-14.49v-10.1h14.49v10.1ZM1071.97,325.33h-14.49v-37.76h14.49v37.76Z" fill="#fff"/>
        <path d="M1108.86,299.86c-2.05-.68-3.83-1.02-5.34-1.02-2.93,0-5.16.82-6.7,2.45s-2.31,3.94-2.31,6.92v17.12h-14.42v-37.76h13.83l-.07,5.85c1.37-2.34,2.93-4.07,4.68-5.2s3.95-1.68,6.59-1.68c1.17,0,2.42.22,3.73.66v12.66Z" fill="#fff"/>
        <path d="M1145.53,291.96c3.8,3.66,5.71,8.44,5.71,14.34s-1.93,10.79-5.78,14.53c-3.85,3.73-8.83,5.6-14.93,5.6s-11.15-1.85-15-5.56-5.78-8.51-5.78-14.42,1.94-10.71,5.82-14.42c3.88-3.71,8.92-5.56,15.11-5.56s11.05,1.83,14.86,5.49ZM1124.23,306.45c0,6.39,2.1,9.59,6.29,9.59s6.22-3.24,6.22-9.73-2.12-9.37-6.37-9.37-6.15,3.17-6.15,9.51Z" fill="#fff"/>
        <path d="M1171.51,292.25c3.07-3.8,7.07-5.71,12-5.71s8.24,1.37,10.39,4.1c2.15,2.73,3.22,6.34,3.22,10.83v23.86h-14.56v-21.15c0-4-1.63-6-4.9-6-3.71,0-5.56,2.12-5.56,6.37v20.78h-14.49v-37.76h13.9v4.68Z" fill="#fff"/>
        <path d="M1219.01,292.4c2.73-3.95,6.68-5.93,11.85-5.93s8.73,2,10.68,6c2.83-4,6.88-6,12.15-6,4.24,0,7.61,1.27,10.1,3.81,2.49,2.54,3.73,5.95,3.73,10.25v24.81h-14.64v-21.3c0-4.05-1.54-6.07-4.61-6.07s-4.83,2.12-4.83,6.37v21h-14.42v-21.81c0-3.85-1.51-5.78-4.54-5.78-3.27,0-4.9,2.2-4.9,6.59v21h-14.49v-37.76h13.9v4.83Z" fill="#fff"/>
        <path d="M1307.38,323.21c-3.73,2.15-7.82,3.22-12.26,3.22-6.15,0-11.25-1.73-15.29-5.2-4.05-3.46-6.07-8.24-6.07-14.34s1.96-10.76,5.89-14.56c3.93-3.81,8.92-5.71,14.97-5.71s11.4,1.98,15.19,5.93c3.78,3.95,5.67,9.27,5.67,15.95v1.1h-27.81c.1,2.39.79,4.25,2.09,5.56s3.06,1.98,5.31,1.98c2.68,0,4.71-1.05,6.07-3.15h13.54c-1.12,4-3.55,7.07-7.28,9.22ZM1294.68,295.91c-3.9,0-6.22,2.15-6.95,6.44h13.61c-.39-4.29-2.61-6.44-6.66-6.44Z" fill="#fff"/>
        <path d="M1335.52,292.25c3.07-3.8,7.07-5.71,12-5.71s8.24,1.37,10.39,4.1c2.15,2.73,3.22,6.34,3.22,10.83v23.86h-14.56v-21.15c0-4-1.63-6-4.9-6-3.71,0-5.56,2.12-5.56,6.37v20.78h-14.49v-37.76h13.9v4.68Z" fill="#fff"/>
        <path d="M1393.99,296.57h-7.83v13.46c0,2.05.28,3.43.84,4.13.56.71,1.89,1.06,3.99,1.06,1.37,0,2.37-.05,3-.15v10.46c-2.93.2-5.46.29-7.61.29-5.32,0-9.09-.93-11.31-2.78s-3.33-5.05-3.33-9.59v-16.9h-6.22v-9h6.22v-11.64h14.42v11.64h7.83v9Z" fill="#fff"/>
      </g>
    </g>
  </g>
</svg>